<svg width="35" height="30" viewBox="0 0 35 30" fill="none" xmlns="http://www.w3.org/2000/svg">
<g id="github 1">
<path id="Vector" d="M13.1251 23.75C5.83341 25.625 5.83341 20.625 2.91675 20M23.3334 27.5V22.6625C23.3881 22.0665 23.2942 21.4673 23.0578 20.9047C22.8215 20.3422 22.4481 19.8293 21.9626 19.4C26.5417 18.9625 31.3542 17.475 31.3542 10.65C31.3539 8.90478 30.5707 7.2265 29.1667 5.9625C29.8315 4.43563 29.7845 2.74794 29.0355 1.25C29.0355 1.25 27.3147 0.812498 23.3334 3.1C19.9909 2.32353 16.4676 2.32353 13.1251 3.1C9.14383 0.812498 7.423 1.25 7.423 1.25C6.67396 2.74794 6.62696 4.43563 7.29175 5.9625C5.87735 7.23587 5.09334 8.92933 5.10425 10.6875C5.10425 17.4625 9.91675 18.95 14.4959 19.4375C14.0161 19.8625 13.6461 20.3693 13.4099 20.9249C13.1737 21.4805 13.0767 22.0726 13.1251 22.6625V27.5" stroke="#1D7874" stroke-width="2" stroke-linecap="round" stroke-linejoin="round"/>
</g>
</svg>
