<svg width="35" height="30" viewBox="0 0 35 30" fill="none" xmlns="http://www.w3.org/2000/svg">
<g id="linkedin 1">
<path id="Vector" d="M23.3333 10C25.6539 10 27.8795 10.7902 29.5204 12.1967C31.1614 13.6032 32.0833 15.5109 32.0833 17.5V26.25H26.2499V17.5C26.2499 16.837 25.9426 16.2011 25.3956 15.7322C24.8487 15.2634 24.1068 15 23.3333 15C22.5597 15 21.8178 15.2634 21.2709 15.7322C20.7239 16.2011 20.4166 16.837 20.4166 17.5V26.25H14.5833V17.5C14.5833 15.5109 15.5051 13.6032 17.1461 12.1967C18.787 10.7902 21.0126 10 23.3333 10Z" stroke="#1D7874" stroke-width="2" stroke-linecap="round" stroke-linejoin="round"/>
<path id="Vector_2" d="M8.75008 11.25H2.91675V26.25H8.75008V11.25Z" stroke="#1D7874" stroke-width="2" stroke-linecap="round" stroke-linejoin="round"/>
<path id="Vector_3" d="M5.83341 7.5C7.44425 7.5 8.75008 6.38071 8.75008 5C8.75008 3.61929 7.44425 2.5 5.83341 2.5C4.22258 2.5 2.91675 3.61929 2.91675 5C2.91675 6.38071 4.22258 7.5 5.83341 7.5Z" stroke="#1D7874" stroke-width="2" stroke-linecap="round" stroke-linejoin="round"/>
</g>
</svg>
