<svg width="35" height="30" viewBox="0 0 35 30" fill="none" xmlns="http://www.w3.org/2000/svg">
<g id="phone-call 1">
<path id="Vector" d="M21.9479 6.25C23.3723 6.48821 24.6814 7.08532 25.7076 7.96492C26.7338 8.84452 27.4304 9.96658 27.7083 11.1875M21.9479 1.25C24.9073 1.5318 27.6669 2.66772 29.7737 4.47126C31.8805 6.2748 33.2092 8.63876 33.5417 11.175M32.0833 21.15V24.9C32.085 25.2481 32.0018 25.5927 31.8391 25.9117C31.6764 26.2307 31.4377 26.517 31.1385 26.7523C30.8392 26.9877 30.4858 27.1669 30.1011 27.2784C29.7164 27.3899 29.3087 27.4313 28.9042 27.4C24.4166 26.9821 20.106 25.6677 16.3188 23.5625C12.7952 21.6433 9.80779 19.0827 7.56875 16.0625C5.10414 12.8015 3.57036 9.08874 3.09167 5.225C3.05523 4.87933 3.10316 4.53095 3.2324 4.20203C3.36165 3.87311 3.56938 3.57086 3.84237 3.31453C4.11536 3.05819 4.44764 2.85339 4.81803 2.71315C5.18843 2.57292 5.58883 2.50033 5.99375 2.5H10.3688C11.0765 2.49403 11.7626 2.70885 12.2992 3.10442C12.8359 3.49998 13.1864 4.04931 13.2854 4.65C13.4701 5.85008 13.8125 7.02841 14.3063 8.1625C14.5025 8.6099 14.5449 9.09614 14.4286 9.5636C14.3123 10.0311 14.0421 10.4601 13.65 10.8L11.7979 12.3875C13.8739 15.5169 16.8969 18.1081 20.5479 19.8875L22.4 18.3C22.7965 17.9639 23.2971 17.7323 23.8425 17.6326C24.3878 17.5329 24.9551 17.5693 25.4771 17.7375C26.8002 18.1607 28.1749 18.4542 29.575 18.6125C30.2834 18.6982 30.9304 19.004 31.3929 19.4719C31.8553 19.9397 32.1011 20.537 32.0833 21.15Z" stroke="#1D7874" stroke-width="2" stroke-linecap="round" stroke-linejoin="round"/>
</g>
</svg>
